<svg width="512" height="512" viewBox="0 0 512 512" fill="none" xmlns="http://www.w3.org/2000/svg">
<circle cx="256" cy="256" r="256" fill="url(#paint0_radial_130_272)"/>
<path d="M216.368 326.786C218.608 325.474 221.056 324.194 223.712 322.978C221.468 326.323 219.066 329.559 216.512 332.674C212.032 338.066 208.544 340.93 206.352 341.826C206.17 341.903 205.983 341.967 205.792 342.018C205.632 341.796 205.493 341.56 205.376 341.314C204.48 339.554 204.512 337.858 206.016 335.554C207.712 332.914 211.12 329.89 216.368 326.786ZM255.648 300.434C253.744 300.834 251.856 301.234 249.952 301.682C252.772 296.156 255.44 290.554 257.952 284.882C260.481 289.568 263.204 294.148 266.112 298.61C262.64 299.122 259.136 299.73 255.648 300.434ZM296.048 315.458C293.563 313.453 291.236 311.26 289.088 308.898C292.736 308.978 296.032 309.25 298.88 309.762C303.952 310.674 306.336 312.114 307.168 313.106C307.43 313.383 307.579 313.748 307.584 314.13C307.528 315.258 307.199 316.357 306.624 317.33C306.302 318.109 305.784 318.792 305.12 319.314C304.79 319.516 304.401 319.601 304.016 319.554C302.576 319.506 299.888 318.498 296.048 315.458ZM260.448 239.522C259.808 243.426 258.72 247.906 257.248 252.786C256.706 250.958 256.231 249.112 255.824 247.25C254.608 241.602 254.432 237.17 255.088 234.098C255.696 231.266 256.848 230.13 258.224 229.57C258.962 229.244 259.744 229.029 260.544 228.93C260.752 229.41 260.992 230.402 261.056 232.098C261.136 234.05 260.944 236.53 260.448 239.538V239.522Z" fill="white"/>
<path fill-rule="evenodd" clip-rule="evenodd" d="M192 128H276.688C280.931 128.001 285 129.687 288 132.688L347.312 192C350.313 195 351.999 199.069 352 203.312V352C352 360.487 348.629 368.626 342.627 374.627C336.626 380.629 328.487 384 320 384H192C183.513 384 175.374 380.629 169.373 374.627C163.371 368.626 160 360.487 160 352V160C160 151.513 163.371 143.374 169.373 137.373C175.374 131.371 183.513 128 192 128ZM280 152V184C280 188.243 281.686 192.313 284.686 195.314C287.687 198.314 291.757 200 296 200H328L280 152ZM194.64 346.688C196.08 349.568 198.32 352.176 201.648 353.392C204.96 354.592 208.24 354.032 210.928 352.912C216.016 350.832 221.088 345.936 225.744 340.336C231.072 333.92 236.672 325.504 242.08 316.176C252.52 313.082 263.212 310.908 274.032 309.68C278.832 315.808 283.792 321.088 288.592 324.88C293.072 328.4 298.24 331.328 303.536 331.552C306.421 331.695 309.277 330.922 311.696 329.344C314.176 327.728 316.016 325.392 317.36 322.688C318.8 319.792 319.68 316.768 319.568 313.68C319.467 310.635 318.339 307.715 316.368 305.392C312.752 301.072 306.832 298.992 301.008 297.952C293.943 296.858 286.775 296.589 279.648 297.152C273.63 288.644 268.382 279.616 263.968 270.176C267.968 259.616 270.96 249.632 272.288 241.472C272.864 237.984 273.168 234.656 273.056 231.648C273.036 228.662 272.341 225.72 271.024 223.04C270.265 221.561 269.186 220.27 267.866 219.26C266.546 218.25 265.018 217.546 263.392 217.2C260.16 216.512 256.832 217.2 253.776 218.432C247.744 220.832 244.56 225.952 243.36 231.6C242.192 237.04 242.72 243.376 244.096 249.776C245.504 256.272 247.904 263.344 250.976 270.496C246.062 282.717 240.387 294.617 233.984 306.128C225.738 308.722 217.79 312.182 210.272 316.448C204.352 319.968 199.088 324.128 195.92 329.04C192.56 334.256 191.52 340.464 194.64 346.688Z" fill="white"/>
<path d="M196.088 154.683C198.28 154.781 200.446 154.262 202.219 153.216C202.987 152.58 203.577 151.818 203.946 150.981C204.316 150.145 204.457 149.253 204.36 148.368C204.444 147.504 204.296 146.635 203.927 145.821C203.557 145.007 202.975 144.267 202.219 143.652C200.629 142.558 198.598 141.971 196.51 142.001H186V161.784H190.898V154.683H196.088Z" fill="#3083CA"/>
<path d="M226.887 161.053C228.339 160.381 229.526 159.389 230.31 158.194C231.682 156.146 232.354 153.84 232.256 151.513C232.267 150.375 232.115 149.241 231.802 148.132C231.482 146.985 230.887 145.898 230.05 144.936C229.041 143.761 227.582 142.886 225.898 142.447C224.669 142.141 223.389 141.991 222.103 142.001H211.528V161.993H222.103C223.776 162.052 225.434 161.725 226.887 161.053Z" fill="#3083CA"/>
<path d="M243.641 146H256V142.027H238.549V161.784H243.641V153.504H254.475V149H243.641V146Z" fill="#3083CA"/>
<path d="M221.227 145.433H216.491V158.351H221.227C222.347 158.391 223.451 158.129 224.367 157.608C225.282 157.086 225.958 156.334 226.287 155.468C226.836 154.261 227.1 152.981 227.066 151.695C227.169 150.094 226.768 148.499 225.898 147.058C225.373 146.472 224.662 146.011 223.84 145.725C223.017 145.439 222.115 145.338 221.227 145.433Z" fill="white"/>
<path d="M198.327 146.091C197.543 145.619 196.578 145.387 195.602 145.436H190.898V151.279H195.634C196.626 151.33 197.603 151.067 198.359 150.546C198.713 150.249 198.983 149.894 199.151 149.505C199.319 149.116 199.381 148.702 199.332 148.292C199.38 147.883 199.308 147.471 199.122 147.089C198.936 146.706 198.641 146.365 198.262 146.091H198.327Z" fill="white"/>
<path d="M337 324C320.41 324 307 337.41 307 354C307 370.59 320.41 384 337 384C353.59 384 367 370.59 367 354C367 337.41 353.59 324 337 324ZM346.3 339.21C346.72 339.21 347.14 339.36 347.5 339.69L351.31 343.5C352 344.16 352 345.21 351.31 345.84L348.31 348.84L342.16 342.69L345.16 339.69C345.46 339.36 345.88 339.21 346.3 339.21ZM340.39 344.43L346.57 350.61L328.39 368.79H322.21V362.61L340.39 344.43Z" fill="black"/>
<defs>
<radialGradient id="paint0_radial_130_272" cx="0" cy="0" r="1" gradientUnits="userSpaceOnUse" gradientTransform="translate(161 115) rotate(59.7685) scale(425.416)">
<stop stop-color="#AFD4F3"/>
<stop offset="0.335112" stop-color="#5999D0"/>
<stop offset="0.640764" stop-color="#1575C7"/>
<stop offset="1" stop-color="#0E66B1"/>
</radialGradient>
</defs>
</svg>
